# xmcd
#
# Track frame offsets:
# 150
# 14385
# 28943
# 45246
# 65730
# 83422
# 100794
# 117818
# 138674
# 154184
# 167970
# 185108
# 201075
# 216780
# 232760
# 247103
# 262452
# 276470
# 291292
# 308127
# 328601
#
# Disc length: 4640 seconds
#
#
# Revision: 1
# Processed by: cddbd v1.5.1PL0 Copyright (c) Steve Scherf et al.
# Submitted via: FreeRIP 2.91 
#
DISCID=3e121e15
DTITLE=NL Flavour - NL Flavour
DYEAR=2005
DGENRE=Nederhop
TTITLE0=Ali B - Leipe Mocro Flavour
TTITLE1=Brace - Vraag Jezelf Eens Af
TTITLE2=Lange Frans and Baas B - Supervisie
TTITLE3=THC - Zina
TTITLE4=Negativ ft. Ebon-E - Niets Is Wat Het Zijn Moet
TTITLE5=Yes-R and Baas B - Stel Je Voor
TTITLE6=Raymzter - Zeg Ja!!
TTITLE7=Brainpower - Pro
TTITLE8=La Rouge ft. RMXCRW - Als Je Weet Wat Je Doet...
TTITLE9=K-Liber ft. Michael Brian - Loungen
TTITLE10=TIM - Geloof Me
TTITLE11=D-Men ft. Negativ and Brutus - Mijn Feestje
TTITLE12=ADHD ft. Casablanca Connect and Brutus - Shouf Shou Habibi
TTITLE13=Rico and Stickz - Strik Je Veter
TTITLE14=DJ Chuckie ft. RbDJan and QF - Ballen Tot We Vallen
TTITLE15=Iceman - Magere Hein
TTITLE16=Lange Frans and Baas B - Spreek
TTITLE17=Typhoon - Vluchtgedrag
TTITLE18=Goldy - Goldy
TTITLE19=THC - Wil Je Weten Hoe Het Voelt?
TTITLE20=Negativ ft. Ebon-E - Kijk Eens Om Je Heen!!
EXTD=http://popartiesten.pagina.nl
EXTT0=
EXTT1=
EXTT2=
EXTT3=
EXTT4=
EXTT5=
EXTT6=
EXTT7=
EXTT8=
EXTT9=
EXTT10=
EXTT11=
EXTT12=
EXTT13=
EXTT14=
EXTT15=
EXTT16=
EXTT17=
EXTT18=
EXTT19=
EXTT20=
PLAYORDER=
